# xmcd
#
# Track frame offsets:
#	150
#	14642
#	29292
#	42977
#	56913
#	70349
#	83900
#	100704
#	114547
#	128167
#	141910
#	155490
#	169906
#	182381
#	196135
#	210980
#	224569
#	238500
#	252352
#	265727
#	279695
#	293507
#	305092
#	318632
#
# Disc length: 4434 seconds
#
# Revision: 0
# Processed by: cddbd v1.5.2PL0 Copyright (c) Steve Scherf et al.
# Submitted via: audiograbber 1.83.01
#
DISCID=68115018
DTITLE=Various Artist - The History Of Rhythm And Blues 1925-1942 [CD1]
DYEAR=2008
DGENRE=Blues
TTITLE0=Austin Coleman - My Soul Is A Witness 
TTITLE1=Blind Willie Johnson - It's Nobody's Fault But Mine
TTITLE2=Jessie May Hill - The Crucifixion Of Christ
TTITLE3=Papa Charlie Jackson - Shake That Thing
TTITLE4=Blind Joe Reynolds - Outside Woman Blues
TTITLE5=Frank Stokes - It's A Good Thing 
TTITLE6=Gus Cannon's Jug Stompers - Minglewood Blues
TTITLE7=Blind Lemon Jefferson - Matchbox Blues
TTITLE8=Blind Blake - Diddie Wah Diddie
TTITLE9=Sleepy John Estes - Milk Cow Blues 
TTITLE10=Barbeque Bob - Ease It To Me Blues
TTITLE11=Curley Weaver - No No Blues
TTITLE12=Bobby Leecan and Robert Cooksey - Apaloosa Blues 
TTITLE13=Pearl Dickson - Little Rock Blues
TTITLE14=Jim Jackson - Kansas City Blues
TTITLE15=Jimmie Rodgers - Train Whistle Blues
TTITLE16=Memphis Minnie - Goin' Back To Texas
TTITLE17=Hambone Willie Newbern - Roll And Tumble Blues
TTITLE18=Skip James - If You Haven't Any Hay
TTITLE19=Scrapper Blackwell - Kokomo Blues
TTITLE20=Georgia Tom and Tampa Red - It's Tight Like That
TTITLE21=Bryant's Jubilee Quartet - Didn't It Rain
TTITLE22=Jed Davenport - Beale Street Breakdown
TTITLE23=Kokomo Arnold - Milk Cow Blues 
EXTD=
EXTT0=
EXTT1=
EXTT2=
EXTT3=
EXTT4=
EXTT5=
EXTT6=
EXTT7=
EXTT8=
EXTT9=
EXTT10=
EXTT11=
EXTT12=
EXTT13=
EXTT14=
EXTT15=
EXTT16=
EXTT17=
EXTT18=
EXTT19=
EXTT20=
EXTT21=
EXTT22=
EXTT23=
PLAYORDER=
